<?xml version="1.0" standalone="no"?>
<!DOCTYPE svg PUBLIC "-//W3C//DTD SVG 20010904//EN"
 "http://www.w3.org/TR/2001/REC-SVG-20010904/DTD/svg10.dtd">
<svg version="1.0" xmlns="http://www.w3.org/2000/svg"
 width="500.000000pt" height="500.000000pt" viewBox="0 0 500.000000 500.000000"
 preserveAspectRatio="xMidYMid meet" >

<g transform="translate(0.000000,500.000000) scale(0.100000,-0.100000)"
fill="purple" stroke="none">
<path d="M2555 3446 c-42 -19 -82 -64 -97 -110 -12 -36 -17 -40 -66 -52 -129
-33 -303 -140 -393 -242 -57 -65 -111 -146 -142 -216 -33 -73 -33 -76 1 -75
24 0 31 9 64 77 45 95 112 178 201 253 103 86 323 185 335 150 9 -26 68 -84
99 -97 87 -37 174 -2 229 91 9 17 14 18 60 5 198 -54 393 -218 485 -409 30
-62 37 -71 62 -71 25 0 27 3 22 23 -28 91 -154 271 -242 343 -76 62 -196 129
-274 153 -98 30 -99 30 -114 75 -33 95 -139 142 -230 102z m113 -51 c95 -38
96 -161 2 -210 -37 -19 -54 -19 -96 1 -88 42 -82 187 8 213 45 13 43 13 86 -4z"/>
<path d="M2523 2940 c-77 -16 -173 -70 -232 -128 l-56 -57 33 -3 c26 -3 41 4
79 37 47 42 102 75 111 66 3 -2 -3 -16 -12 -30 -9 -14 -21 -36 -26 -50 -9 -23
-7 -25 20 -25 23 0 32 7 46 35 9 19 34 50 55 70 32 29 47 35 84 35 35 0 51 -6
80 -32 20 -17 45 -48 56 -70 16 -31 25 -38 49 -38 28 0 29 1 18 28 -7 15 -20
39 -31 55 -10 15 -16 27 -12 27 15 0 74 -36 117 -71 32 -27 56 -39 78 -39 l31
0 -21 30 c-32 45 -118 107 -190 136 -71 28 -203 40 -277 24z"/>
<path d="M3000 2470 l0 -100 25 0 25 0 0 100 0 100 -25 0 -25 0 0 -100z"/>
<path d="M3340 2535 c0 -33 -2 -35 -21 -25 -16 9 -26 8 -45 -5 -19 -12 -24
-24 -24 -60 0 -47 19 -75 50 -75 10 0 22 5 26 11 4 8 9 8 17 0 30 -30 37 -12
37 89 0 93 -1 100 -20 100 -16 0 -20 -7 -20 -35z m-2 -91 c2 -21 -2 -33 -12
-37 -21 -8 -39 19 -32 49 10 36 40 28 44 -12z"/>
<path d="M1562 2553 c-43 -17 -32 -82 17 -103 47 -19 41 -43 -9 -38 -32 3 -40
0 -40 -13 0 -34 79 -40 111 -8 28 28 21 59 -21 87 -47 31 -49 42 -7 42 37 0
58 24 31 34 -18 7 -64 7 -82 -1z"/>
<path d="M2230 2465 c0 -95 0 -95 25 -95 22 0 25 4 25 35 0 19 5 35 10 35 6 0
18 -16 27 -35 12 -25 23 -35 40 -35 29 0 29 2 -4 60 l-26 47 26 35 c32 42 33
48 8 48 -11 0 -33 -18 -50 -42 l-31 -42 0 42 c0 38 -2 42 -25 42 -25 0 -25 0
-25 -95z"/>
<path d="M1696 2513 c-14 -18 -16 -28 -8 -31 7 -2 12 -22 12 -47 0 -25 6 -47
14 -55 21 -16 60 -9 64 13 2 10 0 17 -5 16 -25 -4 -33 4 -33 36 0 28 4 35 20
35 11 0 20 7 20 15 0 8 -7 15 -15 15 -9 0 -18 7 -21 15 -9 22 -27 18 -48 -12z"/>
<path d="M2118 2521 c-13 -16 -15 -30 -9 -76 4 -30 12 -60 18 -66 17 -17 67
-7 71 14 3 13 -2 17 -15 15 -14 -2 -19 4 -21 35 -2 28 0 37 12 37 9 0 16 7 16
15 0 8 -7 15 -15 15 -8 0 -15 7 -15 15 0 21 -22 19 -42 -4z"/>
<path d="M1843 2512 c-29 -9 -16 -30 16 -28 13 0 26 -5 28 -11 3 -8 -4 -13
-17 -13 -38 0 -60 -19 -60 -50 0 -23 5 -31 24 -36 13 -3 33 -1 44 5 14 7 23 8
27 1 3 -5 13 -10 21 -10 11 0 14 14 14 59 0 51 -3 62 -22 75 -24 17 -39 18
-75 8z m47 -86 c0 -20 -19 -31 -32 -18 -6 6 -7 15 -4 21 10 16 36 13 36 -3z"/>
<path d="M2042 2504 c-12 -8 -22 -10 -22 -5 0 6 -9 11 -20 11 -18 0 -20 -7
-20 -70 0 -63 2 -70 20 -70 15 0 20 7 20 28 0 47 11 70 36 76 15 4 24 14 24
26 0 24 -8 25 -38 4z"/>
<path d="M2487 2513 c-4 -3 -23 -6 -42 -5 l-35 1 0 -69 c0 -63 2 -70 20 -70
14 0 20 7 20 24 0 52 12 86 31 86 16 0 19 -8 19 -55 0 -52 1 -55 25 -55 24 0
25 3 25 59 0 51 -3 62 -22 75 -25 18 -32 19 -41 9z"/>
<path d="M2624 2510 c-29 -12 -36 -25 -36 -68 0 -61 59 -92 110 -56 25 17 31
79 10 107 -16 20 -57 29 -84 17z m56 -64 c0 -31 -16 -50 -34 -43 -19 7 -22 57
-4 75 16 16 38 -3 38 -32z"/>
<path d="M3120 2507 c-79 -40 -24 -155 64 -133 39 10 32 31 -11 31 -20 0 -38
6 -40 13 -3 8 9 12 41 12 30 0 46 4 46 13 0 31 -14 55 -36 66 -31 14 -33 14
-64 -2z m54 -32 c4 -11 -1 -15 -19 -15 -24 0 -32 10 -18 23 11 12 31 8 37 -8z"/>
<path d="M3443 2505 c-23 -16 -31 -49 -14 -59 12 -8 7 -64 -8 -79 -29 -29 2
-57 63 -57 37 0 76 28 76 53 0 22 -23 37 -56 37 -18 0 -36 5 -39 10 -3 6 3 10
15 10 35 0 60 19 60 45 0 13 6 25 13 28 19 7 5 14 -43 21 -33 5 -51 2 -67 -9z
m57 -34 c0 -11 -4 -22 -9 -25 -12 -8 -34 21 -26 34 11 17 35 11 35 -9z m15
-110 c8 -14 -30 -32 -49 -25 -30 11 -16 34 20 34 13 0 25 -4 29 -9z"/>
<path d="M3606 2499 c-52 -41 -23 -129 43 -129 38 0 61 9 61 25 0 8 -13 12
-36 11 -54 -2 -55 22 -2 26 39 3 43 5 40 28 -4 29 -36 60 -62 60 -9 0 -29 -9
-44 -21z m62 -27 c2 -7 -6 -12 -17 -12 -21 0 -27 11 -14 24 9 9 26 2 31 -12z"/>
<path d="M2756 2483 c24 -97 30 -108 54 -108 22 0 26 6 34 48 5 26 12 47 16
47 4 0 11 -21 16 -47 8 -41 13 -48 35 -51 25 -3 27 1 43 62 20 80 20 76 -3 76
-19 0 -31 -25 -31 -67 0 -13 -4 -23 -10 -23 -5 0 -10 10 -10 23 0 49 -11 67
-41 67 -26 0 -28 -4 -35 -47 -7 -50 -15 -45 -28 20 -5 18 -13 27 -26 27 -17 0
-19 -4 -14 -27z"/>
<path d="M1830 2175 c0 -3 18 -42 40 -88 96 -196 306 -370 515 -428 56 -15 61
-19 73 -55 44 -131 209 -167 295 -65 15 18 30 45 33 59 10 39 20 49 62 57 57
10 165 59 243 110 133 86 265 247 319 390 9 23 7 25 -18 25 -25 0 -33 -9 -66
-72 -96 -185 -274 -334 -470 -394 -57 -18 -59 -18 -70 0 -55 94 -142 129 -229
92 -31 -13 -90 -71 -99 -97 -11 -32 -223 60 -325 142 -81 64 -164 164 -211
256 -32 64 -40 73 -64 73 -16 0 -28 -2 -28 -5z m843 -421 c96 -46 85 -180 -17
-214 -45 -15 -111 11 -131 51 -32 60 -10 134 47 162 42 21 59 21 101 1z"/>
<path d="M2250 2171 c0 -19 105 -103 167 -132 179 -86 397 -51 537 85 l51 50
-33 4 c-25 3 -42 -4 -75 -31 -47 -39 -107 -72 -107 -59 0 4 6 16 14 27 7 11
16 30 20 43 7 19 4 22 -22 22 -23 0 -32 -6 -42 -30 -7 -16 -30 -46 -51 -65
-33 -30 -46 -35 -86 -35 -43 0 -51 4 -95 50 -26 27 -48 57 -48 65 0 10 -10 15
-30 15 -36 0 -37 -11 -9 -57 12 -19 19 -36 16 -39 -7 -7 -107 57 -126 79 -14
18 -81 24 -81 8z"/>
</g>
</svg>
